<?xml version="1.0" encoding="utf-8"?>
<!-- Generator: Adobe Illustrator 22.1.0, SVG Export Plug-In . SVG Version: 6.00 Build 0)  -->
<svg version="1.1" id="Layer_1" xmlns="http://www.w3.org/2000/svg" xmlns:xlink="http://www.w3.org/1999/xlink" x="0px" y="0px"
	 viewBox="0 0 591.7 140.7" style="enable-background:new 0 0 591.7 140.7;" xml:space="preserve">
<style type="text/css">
	.st0{enable-background:new    ;}
	.st1{fill:#AAC27F;}
	.st2{fill:#8E9C9C;}
	.st3{clip-path:url(#SVGID_2_);fill:url(#SVGID_3_);}
</style>
<g class="st0">
	<path class="st1" d="M385.4,39.9c0.2,1.3-0.6,1.7-1.5,1.7h-1.2c-1,0-1.9-0.3-2-1.8l-0.8-6h-5.2l-0.8,6c-0.2,1.4-1,1.8-2,1.8h-1.3
		c-0.9,0-1.7-0.4-1.5-1.7l4.6-27.6c0.2-1.4,1.1-1.7,2.1-1.7h2.8c1,0,1.8,0.3,2.1,1.7L385.4,39.9z M377.4,15.4h-0.2l-1.9,14.2h4
		L377.4,15.4z"/>
	<path class="st1" d="M404.1,39.9c0,1-0.4,1.8-1.8,1.8h-9.3c-1,0-1.8-0.4-1.8-1.8V12.4c0-1.4,0.8-1.8,1.8-1.8h1.2
		c1,0,1.8,0.4,1.8,1.8v24.9h6.3c1.4,0,1.8,0.8,1.8,1.8V39.9z"/>
	<path class="st1" d="M415.3,39.9c0,1.4-0.8,1.8-1.8,1.8h-1.2c-1,0-1.8-0.4-1.8-1.8V15h-2.9c-1.4,0-1.8-0.8-1.8-1.8v-0.8
		c0-1,0.4-1.8,1.8-1.8h10.5c1.4,0,1.8,0.8,1.8,1.8v0.8c0,1-0.4,1.8-1.8,1.8h-2.9V39.9z"/>
	<path class="st1" d="M438.1,39.9c0.2,1.3-0.6,1.7-1.5,1.7h-1.2c-1,0-1.9-0.3-2-1.8l-0.8-6h-5.2l-0.8,6c-0.2,1.4-1,1.8-2,1.8h-1.3
		c-0.9,0-1.7-0.4-1.5-1.7l4.6-27.6c0.2-1.4,1.1-1.7,2.1-1.7h2.8c1,0,1.8,0.3,2.1,1.7L438.1,39.9z M430,15.4h-0.2l-1.9,14.2h4
		L430,15.4z"/>
	<path class="st1" d="M448.7,39.9c0,1.4-0.8,1.8-1.8,1.8h-1.2c-1,0-1.8-0.4-1.8-1.8V12.4c0-1.4,0.8-1.8,1.8-1.8h1.2
		c1,0,1.8,0.4,1.8,1.8V39.9z"/>
	<path class="st1" d="M470.4,39.9c0.3,1.3-0.4,1.7-1.3,1.7h-1.6c-1,0-1.9-0.3-2.2-1.7l-2.9-11.5h-2.1v11.4c0,1.4-0.8,1.8-1.8,1.8
		h-1.2c-1,0-1.8-0.4-1.8-1.8V12.4c0-1.4,0.8-1.8,1.8-1.8h4.5c5.5,0,8.4,2.2,8.4,8.3c0,3.9-1.4,6.3-3.6,7.4L470.4,39.9z M460.4,24.4
		h1.5c2.3,0,3.5-1.3,3.5-5.1c0-4.3-1.6-4.7-3.9-4.7h-1V24.4z"/>
</g>
<g class="st0">
	<path class="st1" d="M375.3,84.6c0,1.4-0.8,1.8-1.8,1.8h-1.2c-1,0-1.8-0.4-1.8-1.8V57.1c0-1.4,0.8-1.8,1.8-1.8h1.2
		c1,0,1.8,0.4,1.8,1.8V84.6z"/>
	<path class="st1" d="M397,84.6c0,1.4-0.8,1.8-1.8,1.8h-0.5c-1,0-1.9-0.3-2.3-1.7l-6-19.1h-0.1v19c0,1.4-0.8,1.8-1.8,1.8h-0.5
		c-1,0-1.8-0.4-1.8-1.8V57.1c0-1.4,0.8-1.8,1.8-1.8h1.6c1,0,1.9,0.3,2.3,1.7l4.8,15.8h0.1V57.1c0-1.4,0.8-1.8,1.8-1.8h0.6
		c1,0,1.8,0.4,1.8,1.8V84.6z"/>
	<path class="st1" d="M413.2,84.6c-0.3,1.4-1,1.7-2.1,1.7h-1.6c-1,0-1.8-0.3-2.1-1.7L402.3,57c-0.1-1.3,0.6-1.7,1.5-1.7h1.4
		c1,0,1.9,0.3,2,1.8l3,20.4h0.1l2.9-20.4c0.2-1.5,1-1.8,2-1.8h1.4c0.9,0,1.6,0.4,1.5,1.7L413.2,84.6z"/>
	<path class="st1" d="M436.9,84.6c0,1-0.4,1.8-1.8,1.8h-9.6c-1,0-1.8-0.4-1.8-1.8V57.1c0-1.4,0.8-1.8,1.8-1.8h9.1
		c1.4,0,1.8,0.8,1.8,1.8v0.8c0,1-0.4,1.8-1.8,1.8h-6.1v8.5h4.5c1.4,0,1.8,0.8,1.8,1.8v0.7c0,1-0.4,1.8-1.8,1.8h-4.5V82h6.6
		c1.4,0,1.8,0.8,1.8,1.8V84.6z"/>
	<path class="st1" d="M457.4,84.6c0,1.4-0.8,1.8-1.8,1.8h-0.5c-1,0-1.9-0.3-2.3-1.7l-6-19.1h-0.1v19c0,1.4-0.8,1.8-1.8,1.8h-0.5
		c-1,0-1.8-0.4-1.8-1.8V57.1c0-1.4,0.8-1.8,1.8-1.8h1.6c1,0,1.9,0.3,2.3,1.7l4.8,15.8h0.1V57.1c0-1.4,0.8-1.8,1.8-1.8h0.6
		c1,0,1.8,0.4,1.8,1.8V84.6z"/>
	<path class="st1" d="M472.2,84.6c0,1.4-0.8,1.8-1.8,1.8h-1.2c-1,0-1.8-0.4-1.8-1.8V59.7h-2.9c-1.4,0-1.8-0.8-1.8-1.8v-0.8
		c0-1,0.4-1.8,1.8-1.8H475c1.4,0,1.8,0.8,1.8,1.8v0.8c0,1-0.4,1.8-1.8,1.8h-2.9V84.6z"/>
	<path class="st1" d="M488,86.7c-5.9,0-7.9-5.3-7.9-15.9c0-11.4,2.1-15.8,7.9-15.8c5.8,0,7.9,4.4,7.9,15.8
		C495.9,81.4,494,86.7,488,86.7z M488,82.6c1.9,0,2.9-2.7,2.9-11.8c0-8.7-0.8-11.6-2.9-11.6c-2.2,0-2.9,2.8-2.9,11.6
		C485.1,79.9,486,82.6,488,82.6z"/>
	<path class="st1" d="M516.9,84.6c0.3,1.3-0.4,1.7-1.3,1.7H514c-1,0-1.9-0.3-2.2-1.7l-2.9-11.5h-2.1v11.4c0,1.4-0.8,1.8-1.8,1.8
		h-1.2c-1,0-1.8-0.4-1.8-1.8V57.1c0-1.4,0.8-1.8,1.8-1.8h4.5c5.5,0,8.4,2.2,8.4,8.3c0,3.9-1.4,6.3-3.6,7.4L516.9,84.6z M506.8,69.1
		h1.5c2.3,0,3.5-1.3,3.5-5.1c0-4.3-1.6-4.7-3.9-4.7h-1V69.1z"/>
	<path class="st1" d="M530.7,84.6c0,1.4-0.8,1.8-1.8,1.8h-1.2c-1,0-1.8-0.4-1.8-1.8V73.7L520.6,57c-0.3-1.3,0.3-1.7,1.2-1.7h1.4
		c1,0,2,0.3,2.3,1.7l2.9,10.7h0.1l3.1-10.7c0.4-1.4,1.2-1.7,2.3-1.7h1.4c0.9,0,1.6,0.5,1.2,1.7l-5.6,16.8V84.6z"/>
</g>
<g class="st0">
	<path class="st1" d="M390,129.2c0,1.4-0.8,1.8-1.8,1.8h-0.5c-1,0-1.8-0.4-1.8-1.8v-20.7h-0.1l-3.8,21c-0.2,1-0.9,1.4-1.7,1.4h-0.1
		c-0.9,0-1.6-0.4-1.7-1.4l-3.9-21h-0.1v20.7c0,1.4-0.8,1.8-1.8,1.8h-0.5c-1,0-1.8-0.4-1.8-1.8v-27.5c0-1.4,0.8-1.8,1.8-1.8h2.7
		c1,0,1.8,0.3,2.1,1.7l3.2,17.6h0.1l3.3-17.6c0.3-1.4,1.1-1.7,2.1-1.7h2.5c1,0,1.8,0.4,1.8,1.8V129.2z"/>
	<path class="st1" d="M411.9,129.2c0.2,1.3-0.6,1.7-1.5,1.7h-1.2c-1,0-1.9-0.3-2-1.8l-0.8-6h-5.2l-0.8,6c-0.2,1.4-1,1.8-2,1.8h-1.3
		c-0.9,0-1.7-0.4-1.5-1.7l4.6-27.6c0.2-1.4,1.1-1.7,2.1-1.7h2.8c1,0,1.8,0.3,2.1,1.7L411.9,129.2z M403.8,104.7h-0.2l-1.9,14.2h4
		L403.8,104.7z"/>
	<path class="st1" d="M432.4,129.2c0,1.4-0.8,1.8-1.8,1.8h-0.5c-1,0-1.9-0.3-2.3-1.7l-6-19.1h-0.1v19c0,1.4-0.8,1.8-1.8,1.8h-0.5
		c-1,0-1.8-0.4-1.8-1.8v-27.5c0-1.4,0.8-1.8,1.8-1.8h1.6c1,0,1.9,0.3,2.3,1.7l4.8,15.8h0.1v-15.7c0-1.4,0.8-1.8,1.8-1.8h0.6
		c1,0,1.8,0.4,1.8,1.8V129.2z"/>
	<path class="st1" d="M454.3,129.2c0.2,1.3-0.6,1.7-1.5,1.7h-1.2c-1,0-1.9-0.3-2-1.8l-0.8-6h-5.2l-0.8,6c-0.2,1.4-1,1.8-2,1.8h-1.3
		c-0.9,0-1.7-0.4-1.5-1.7l4.6-27.6c0.2-1.4,1.1-1.7,2.1-1.7h2.8c1,0,1.8,0.3,2.1,1.7L454.3,129.2z M446.2,104.7h-0.2l-1.9,14.2h4
		L446.2,104.7z"/>
	<path class="st1" d="M474,129.2c0,1.4-0.8,1.8-1.8,1.8h-0.3c-1,0-1.8-0.3-1.8-1.8v-0.3c-1.4,1.9-2.9,2.5-4.8,2.5
		c-4.4,0-6.7-3.8-6.7-16c0-8.9,1.5-15.8,8-15.8c5.3,0,6.9,3.8,7.3,8.7c0.1,1-0.3,1.8-1.6,1.8h-0.8c-1.5,0-1.9-0.8-2-1.8
		c-0.3-2.6-1.1-4.3-2.8-4.3c-2.3,0-3.1,2.9-3.1,11.4c0,8.8,0.4,11.7,3.1,11.7c2.1,0,2.9-2.5,2.9-5.2c0-0.7,0-1.6-0.1-2.2h-1.3
		c-1.4,0-1.8-0.8-1.8-1.8v-0.5c0-1,0.4-1.8,1.8-1.8h4.1c1,0,1.8,0.4,1.8,1.8V129.2z"/>
	<path class="st1" d="M493.7,129.2c0,1-0.4,1.8-1.8,1.8h-9.6c-1,0-1.8-0.4-1.8-1.8v-27.5c0-1.4,0.8-1.8,1.8-1.8h9.1
		c1.4,0,1.8,0.8,1.8,1.8v0.8c0,1-0.4,1.8-1.8,1.8h-6.1v8.5h4.5c1.4,0,1.8,0.8,1.8,1.8v0.7c0,1-0.4,1.8-1.8,1.8h-4.5v9.6h6.6
		c1.4,0,1.8,0.8,1.8,1.8V129.2z"/>
	<path class="st1" d="M518.9,129.2c0,1.4-0.8,1.8-1.8,1.8h-0.5c-1,0-1.8-0.4-1.8-1.8v-20.7h-0.1l-3.8,21c-0.2,1-0.9,1.4-1.7,1.4
		h-0.1c-0.9,0-1.6-0.4-1.7-1.4l-3.9-21h-0.1v20.7c0,1.4-0.8,1.8-1.8,1.8h-0.5c-1,0-1.8-0.4-1.8-1.8v-27.5c0-1.4,0.8-1.8,1.8-1.8h2.7
		c1,0,1.8,0.3,2.1,1.7l3.2,17.6h0.1l3.3-17.6c0.3-1.4,1.1-1.7,2.1-1.7h2.5c1,0,1.8,0.4,1.8,1.8V129.2z"/>
	<path class="st1" d="M539,129.2c0,1-0.4,1.8-1.8,1.8h-9.6c-1,0-1.8-0.4-1.8-1.8v-27.5c0-1.4,0.8-1.8,1.8-1.8h9.1
		c1.4,0,1.8,0.8,1.8,1.8v0.8c0,1-0.4,1.8-1.8,1.8h-6.1v8.5h4.5c1.4,0,1.8,0.8,1.8,1.8v0.7c0,1-0.4,1.8-1.8,1.8h-4.5v9.6h6.6
		c1.4,0,1.8,0.8,1.8,1.8V129.2z"/>
	<path class="st1" d="M559.5,129.2c0,1.4-0.8,1.8-1.8,1.8h-0.5c-1,0-1.9-0.3-2.3-1.7l-6-19.1h-0.1v19c0,1.4-0.8,1.8-1.8,1.8h-0.5
		c-1,0-1.8-0.4-1.8-1.8v-27.5c0-1.4,0.8-1.8,1.8-1.8h1.6c1,0,1.9,0.3,2.3,1.7l4.9,15.8h0.1v-15.7c0-1.4,0.8-1.8,1.8-1.8h0.6
		c1,0,1.8,0.4,1.8,1.8V129.2z"/>
	<path class="st1" d="M574.3,129.2c0,1.4-0.8,1.8-1.8,1.8h-1.2c-1,0-1.8-0.4-1.8-1.8v-24.9h-2.9c-1.4,0-1.8-0.8-1.8-1.8v-0.8
		c0-1,0.4-1.8,1.8-1.8h10.5c1.4,0,1.8,0.8,1.8,1.8v0.8c0,1-0.4,1.8-1.8,1.8h-2.9V129.2z"/>
</g>
<g>
	<path class="st2" d="M71.8,10.7h24.4l51.5,121H120l-12.9-30.9H60.2l-12.9,30.8h-27L71.8,10.7z M97.6,77.5l-14-35l-14,35H97.6z"/>
	<path class="st2" d="M162.7,11.5h26.4v120.1h-26.4V11.5z"/>
	<path class="st2" d="M312.7,11.5h26.4v120.1h-26.4V11.5z"/>
	<polygon class="st1" points="338.5,11.5 310,11.5 278.5,62.3 273.6,54.4 244.8,54.4 277.8,104.5 278.5,104.5 305.3,63.8 339,11.6 	
		"/>
	<g>
		<g>
			<defs>
				<rect id="SVGID_1_" x="204.4" y="11.6" width="73.1" height="48.6"/>
			</defs>
			<clipPath id="SVGID_2_">
				<use xlink:href="#SVGID_1_"  style="overflow:visible;"/>
			</clipPath>
			
				<linearGradient id="SVGID_3_" gradientUnits="userSpaceOnUse" x1="277.85" y1="132.6" x2="277.85" y2="39.6" gradientTransform="matrix(1 0 0 -1 0 144)">
				<stop  offset="0.1766" style="stop-color:#FFFFFF"/>
				<stop  offset="0.5276" style="stop-color:#AAC27F"/>
			</linearGradient>
			<polygon class="st3" points="338.5,11.4 310,11.4 278.4,62.2 246.5,11.8 217.2,11.8 277.2,104.4 278.4,104.4 305.3,63.7 
				338.5,12.3 			"/>
		</g>
	</g>
	<path class="st2" d="M218.3,11.5h26.4v120.1h-26.4V11.5z"/>
</g>
</svg>
