<svg id="Layer_1" data-name="Layer 1" xmlns="http://www.w3.org/2000/svg" viewBox="0 0 216.26 66.85"><defs><style>.cls-1{fill:#fff;}</style></defs><title>Altair_Logo_White</title><path class="cls-1" d="M35,63.13c.46,2.89-1.22,3.72-3.17,3.72H29.22c-2.14,0-4-.74-4.37-3.81L23.08,50.09H12L10.23,63c-.37,3.07-2.14,3.81-4.29,3.81H3.24c-1.95,0-3.63-.83-3.16-3.72L10,3.72C10.41.65,12.28,0,14.42,0h6c2.14,0,3.91.65,4.47,3.72ZM17.68,10.43H17.3L13.21,41.06h8.66Z"/><path class="cls-1" d="M74.84,63c0,2-.84,3.81-3.82,3.81H51.1c-2.05,0-3.82-.83-3.82-3.81V3.82C47.28.84,49.05,0,51.1,0h2.51c2,0,3.82.84,3.82,3.82V57.45H71c3,0,3.82,1.77,3.82,3.82Z"/><path class="cls-1" d="M95.14,63c0,3-1.77,3.81-3.82,3.81H88.71c-2,0-3.81-.83-3.81-3.81V9.4H78.66c-3,0-3.82-1.76-3.82-3.81V3.82c0-2,.84-3.82,3.82-3.82h22.62c3,0,3.82,1.77,3.82,3.82V5.59c0,2.05-.84,3.81-3.82,3.81H95.14Z"/><path class="cls-1" d="M168.11,63c0,3-1.77,3.81-3.81,3.81h-2.61c-2.05,0-3.82-.83-3.82-3.81V3.82c0-3,1.77-3.82,3.82-3.82h2.61c2,0,3.81.84,3.81,3.82Z"/><path class="cls-1" d="M216.08,63.13c.74,2.7-.84,3.72-2.8,3.72h-3.35c-2.23,0-4-.74-4.75-3.72l-6.24-24.68h-4.47V63c0,3-1.76,3.81-3.81,3.81h-2.52c-2,0-3.81-.83-3.81-3.81V3.82c0-3,1.76-3.82,3.81-3.82h9.59c11.83,0,18,4.75,18,17.78,0,8.38-3,13.51-7.72,16ZM194.47,29.8h3.17c5,0,7.45-2.7,7.45-10.9,0-9.22-3.54-10.15-8.38-10.15h-2.24Z"/><path class="cls-1" d="M145.61,63.13c.47,2.89-1.21,3.72-3.16,3.72h-2.61c-2.14,0-4-.74-4.38-3.81l-1.77-12.95H122.61L120.84,63c-.37,3.07-2.14,3.81-4.28,3.81h-2.7c-2,0-3.63-.83-3.16-3.72l9.86-59.41C121,.65,122.89,0,125,0h6c2.15,0,3.91.65,4.47,3.72Zm-17.32-52.7h-.37l-4.1,30.63h8.66Z"/></svg>